<svg xmlns="http://www.w3.org/2000/svg" width="1100" height="520" viewBox="0 0 1100 520">
<rect x="0" y="0" width="100%" height="100%" fill="white"/>
<text x="550.0" y="28" text-anchor="middle" font-family="Arial" font-size="18" fill="#111">Dataset6: 300 users, 20 edges — Total turnaround time (sum over users)</text>
<line x1="90" y1="450.00" x2="1080" y2="450.00" stroke="#e6e6e6" stroke-width="1"/>
<text x="80" y="454.00" text-anchor="end" font-family="Arial" font-size="12" fill="#333">45,136</text>
<line x1="90" y1="371.00" x2="1080" y2="371.00" stroke="#e6e6e6" stroke-width="1"/>
<text x="80" y="375.00" text-anchor="end" font-family="Arial" font-size="12" fill="#333">182,718</text>
<line x1="90" y1="292.00" x2="1080" y2="292.00" stroke="#e6e6e6" stroke-width="1"/>
<text x="80" y="296.00" text-anchor="end" font-family="Arial" font-size="12" fill="#333">320,299</text>
<line x1="90" y1="213.00" x2="1080" y2="213.00" stroke="#e6e6e6" stroke-width="1"/>
<text x="80" y="217.00" text-anchor="end" font-family="Arial" font-size="12" fill="#333">457,881</text>
<line x1="90" y1="134.00" x2="1080" y2="134.00" stroke="#e6e6e6" stroke-width="1"/>
<text x="80" y="138.00" text-anchor="end" font-family="Arial" font-size="12" fill="#333">595,463</text>
<line x1="90" y1="55.00" x2="1080" y2="55.00" stroke="#e6e6e6" stroke-width="1"/>
<text x="80" y="59.00" text-anchor="end" font-family="Arial" font-size="12" fill="#333">733,045</text>
<line x1="90.00" y1="55" x2="90.00" y2="450" stroke="#f0f0f0" stroke-width="1"/>
<text x="90.00" y="470" text-anchor="middle" font-family="Arial" font-size="12" fill="#333">1</text>
<line x1="290.00" y1="55" x2="290.00" y2="450" stroke="#f0f0f0" stroke-width="1"/>
<text x="290.00" y="470" text-anchor="middle" font-family="Arial" font-size="12" fill="#333">21</text>
<line x1="490.00" y1="55" x2="490.00" y2="450" stroke="#f0f0f0" stroke-width="1"/>
<text x="490.00" y="470" text-anchor="middle" font-family="Arial" font-size="12" fill="#333">41</text>
<line x1="680.00" y1="55" x2="680.00" y2="450" stroke="#f0f0f0" stroke-width="1"/>
<text x="680.00" y="470" text-anchor="middle" font-family="Arial" font-size="12" fill="#333">60</text>
<line x1="880.00" y1="55" x2="880.00" y2="450" stroke="#f0f0f0" stroke-width="1"/>
<text x="880.00" y="470" text-anchor="middle" font-family="Arial" font-size="12" fill="#333">80</text>
<line x1="1080.00" y1="55" x2="1080.00" y2="450" stroke="#f0f0f0" stroke-width="1"/>
<text x="1080.00" y="470" text-anchor="middle" font-family="Arial" font-size="12" fill="#333">100</text>
<line x1="90" y1="55" x2="90" y2="450" stroke="#111" stroke-width="1.5"/>
<line x1="90" y1="450" x2="1080" y2="450" stroke="#111" stroke-width="1.5"/>
<text x="550.0" y="495" text-anchor="middle" font-family="Arial" font-size="14" fill="#111">Timestep</text>
<text x="22" y="260.0" transform="rotate(-90, 22, 260.0)" text-anchor="middle" font-family="Arial" font-size="14" fill="#111">Total turnaround time (ms)</text>
<polyline fill="none" stroke="#d62728" stroke-width="2" points="90.00,450.00 100.00,450.00 110.00,450.00 120.00,450.00 130.00,68.79 140.00,68.79 150.00,68.79 160.00,68.79 170.00,68.79 180.00,69.09 190.00,69.09 200.00,69.09 210.00,69.09 220.00,69.09 230.00,69.28 240.00,69.28 250.00,69.28 260.00,69.28 270.00,69.28 280.00,69.13 290.00,69.13 300.00,69.13 310.00,69.13 320.00,69.13 330.00,71.06 340.00,71.06 350.00,71.06 360.00,71.06 370.00,71.06 380.00,65.01 390.00,65.01 400.00,65.01 410.00,65.01 420.00,65.01 430.00,58.44 440.00,58.44 450.00,58.44 460.00,58.44 470.00,58.44 480.00,56.28 490.00,56.29 500.00,56.29 510.00,56.29 520.00,56.28 530.00,55.34 540.00,55.34 550.00,55.34 560.00,55.34 570.00,55.34 580.00,55.36 590.00,55.36 600.00,55.36 610.00,55.36 620.00,55.36 630.00,55.00 640.00,55.00 650.00,55.00 660.00,55.00 670.00,55.00 680.00,56.69 690.00,56.69 700.00,56.69 710.00,56.69 720.00,56.69 730.00,56.73 740.00,56.73 750.00,56.73 760.00,56.73 770.00,56.73 780.00,57.39 790.00,57.39 800.00,57.39 810.00,57.39 820.00,57.39 830.00,57.58 840.00,57.58 850.00,57.58 860.00,57.58 870.00,57.58 880.00,67.58 890.00,67.58 900.00,67.58 910.00,67.58 920.00,67.58 930.00,72.21 940.00,72.21 950.00,72.21 960.00,72.21 970.00,72.21 980.00,57.65 990.00,57.65 1000.00,57.65 1010.00,57.65 1020.00,57.65 1030.00,55.23 1040.00,55.23 1050.00,55.23 1060.00,55.23 1070.00,55.23 1080.00,55.43"/>
<polyline fill="none" stroke="#1f77b4" stroke-width="2" points="90.00,450.00 100.00,450.00 110.00,450.00 120.00,450.00 130.00,56.92 140.00,56.92 150.00,56.92 160.00,56.92 170.00,56.92 180.00,56.77 190.00,56.77 200.00,56.77 210.00,56.77 220.00,56.77 230.00,57.02 240.00,57.02 250.00,57.02 260.00,57.02 270.00,57.02 280.00,56.91 290.00,56.91 300.00,56.91 310.00,56.91 320.00,56.91 330.00,56.94 340.00,56.94 350.00,56.94 360.00,56.94 370.00,56.94 380.00,58.08 390.00,58.08 400.00,58.08 410.00,58.08 420.00,58.08 430.00,58.74 440.00,58.74 450.00,58.74 460.00,58.74 470.00,58.74 480.00,71.92 490.00,71.92 500.00,71.92 510.00,71.92 520.00,71.92 530.00,71.54 540.00,71.54 550.00,71.54 560.00,71.54 570.00,71.54 580.00,71.27 590.00,71.27 600.00,71.27 610.00,71.27 620.00,71.27 630.00,70.88 640.00,70.88 650.00,70.88 660.00,70.88 670.00,70.88 680.00,72.07 690.00,72.07 700.00,72.07 710.00,72.07 720.00,72.07 730.00,71.90 740.00,71.90 750.00,71.90 760.00,71.90 770.00,71.90 780.00,71.62 790.00,71.62 800.00,71.62 810.00,71.62 820.00,71.62 830.00,71.41 840.00,71.41 850.00,71.41 860.00,71.41 870.00,71.41 880.00,71.35 890.00,71.35 900.00,71.35 910.00,71.35 920.00,71.35 930.00,71.04 940.00,71.04 950.00,71.04 960.00,71.04 970.00,71.04 980.00,70.93 990.00,70.93 1000.00,70.93 1010.00,70.93 1020.00,70.93 1030.00,70.84 1040.00,70.84 1050.00,70.84 1060.00,70.84 1070.00,70.84 1080.00,71.60"/>
<rect x="860" y="47" width="210" height="56" fill="white" stroke="#ddd"/>
<line x1="872" y1="60" x2="892" y2="60" stroke="#d62728" stroke-width="3"/>
<text x="900" y="64" font-family="Arial" font-size="12" fill="#111">predictive</text>
<line x1="872" y1="78" x2="892" y2="78" stroke="#1f77b4" stroke-width="3"/>
<text x="900" y="82" font-family="Arial" font-size="12" fill="#111">greedy</text>
</svg>
