<svg xmlns="http://www.w3.org/2000/svg" width="1100" height="520" viewBox="0 0 1100 520">
<rect x="0" y="0" width="100%" height="100%" fill="white"/>
<text x="550.0" y="28" text-anchor="middle" font-family="Arial" font-size="18" fill="#111">experiment_results_20251229_222815 — Avg turnaround time per user</text>
<line x1="90" y1="450.00" x2="1080" y2="450.00" stroke="#e6e6e6" stroke-width="1"/>
<text x="80" y="454.00" text-anchor="end" font-family="Arial" font-size="12" fill="#333">150</text>
<line x1="90" y1="371.00" x2="1080" y2="371.00" stroke="#e6e6e6" stroke-width="1"/>
<text x="80" y="375.00" text-anchor="end" font-family="Arial" font-size="12" fill="#333">417</text>
<line x1="90" y1="292.00" x2="1080" y2="292.00" stroke="#e6e6e6" stroke-width="1"/>
<text x="80" y="296.00" text-anchor="end" font-family="Arial" font-size="12" fill="#333">683</text>
<line x1="90" y1="213.00" x2="1080" y2="213.00" stroke="#e6e6e6" stroke-width="1"/>
<text x="80" y="217.00" text-anchor="end" font-family="Arial" font-size="12" fill="#333">949</text>
<line x1="90" y1="134.00" x2="1080" y2="134.00" stroke="#e6e6e6" stroke-width="1"/>
<text x="80" y="138.00" text-anchor="end" font-family="Arial" font-size="12" fill="#333">1,216</text>
<line x1="90" y1="55.00" x2="1080" y2="55.00" stroke="#e6e6e6" stroke-width="1"/>
<text x="80" y="59.00" text-anchor="end" font-family="Arial" font-size="12" fill="#333">1,482</text>
<line x1="90.00" y1="55" x2="90.00" y2="450" stroke="#f0f0f0" stroke-width="1"/>
<text x="90.00" y="470" text-anchor="middle" font-family="Arial" font-size="12" fill="#333">1</text>
<line x1="290.00" y1="55" x2="290.00" y2="450" stroke="#f0f0f0" stroke-width="1"/>
<text x="290.00" y="470" text-anchor="middle" font-family="Arial" font-size="12" fill="#333">21</text>
<line x1="490.00" y1="55" x2="490.00" y2="450" stroke="#f0f0f0" stroke-width="1"/>
<text x="490.00" y="470" text-anchor="middle" font-family="Arial" font-size="12" fill="#333">41</text>
<line x1="680.00" y1="55" x2="680.00" y2="450" stroke="#f0f0f0" stroke-width="1"/>
<text x="680.00" y="470" text-anchor="middle" font-family="Arial" font-size="12" fill="#333">60</text>
<line x1="880.00" y1="55" x2="880.00" y2="450" stroke="#f0f0f0" stroke-width="1"/>
<text x="880.00" y="470" text-anchor="middle" font-family="Arial" font-size="12" fill="#333">80</text>
<line x1="1080.00" y1="55" x2="1080.00" y2="450" stroke="#f0f0f0" stroke-width="1"/>
<text x="1080.00" y="470" text-anchor="middle" font-family="Arial" font-size="12" fill="#333">100</text>
<line x1="90" y1="55" x2="90" y2="450" stroke="#111" stroke-width="1.5"/>
<line x1="90" y1="450" x2="1080" y2="450" stroke="#111" stroke-width="1.5"/>
<text x="550.0" y="495" text-anchor="middle" font-family="Arial" font-size="14" fill="#111">Timestep</text>
<text x="22" y="260.0" transform="rotate(-90, 22, 260.0)" text-anchor="middle" font-family="Arial" font-size="14" fill="#111">Avg turnaround time (ms/user)</text>
<polyline fill="none" stroke="#d62728" stroke-width="2" points="90.00,450.00 100.00,450.00 110.00,450.00 120.00,450.00 130.00,55.00 140.00,55.00 150.00,55.00 160.00,55.00 170.00,55.00 180.00,320.41 190.00,320.41 200.00,320.41 210.00,320.41 220.00,320.41 230.00,323.35 240.00,323.35 250.00,323.35 260.00,323.35 270.00,323.33 280.00,261.00 290.00,261.00 300.00,261.00 310.00,261.00 320.00,261.00 330.00,334.52 340.00,334.52 350.00,334.52 360.00,334.52 370.00,334.52 380.00,339.81 390.00,339.81 400.00,339.81 410.00,339.81 420.00,339.81 430.00,345.42 440.00,345.42 450.00,345.42 460.00,345.42 470.00,345.42 480.00,338.88 490.00,338.88 500.00,338.88 510.00,338.88 520.00,338.88 530.00,345.11 540.00,345.11 550.00,345.11 560.00,345.11 570.00,345.11 580.00,343.86 590.00,343.86 600.00,343.86 610.00,343.86 620.00,343.86 630.00,342.31 640.00,342.31 650.00,342.31 660.00,342.31 670.00,342.31 680.00,343.86 690.00,343.86 700.00,343.86 710.00,343.86 720.00,343.86 730.00,344.49 740.00,344.49 750.00,344.49 760.00,344.49 770.00,344.49 780.00,347.91 790.00,347.91 800.00,347.91 810.00,347.91 820.00,347.91 830.00,349.47 840.00,349.47 850.00,349.47 860.00,349.47 870.00,349.47 880.00,349.47 890.00,349.47 900.00,349.47 910.00,349.47 920.00,349.47 930.00,351.96 940.00,351.96 950.00,351.96 960.00,351.96 970.00,351.96 980.00,350.09 990.00,350.09 1000.00,350.09 1010.00,350.09 1020.00,350.09 1030.00,350.40 1040.00,350.40 1050.00,350.40 1060.00,350.40 1070.00,350.40 1080.00,351.96"/>
<polyline fill="none" stroke="#1f77b4" stroke-width="2" points="90.00,450.00 100.00,450.00 110.00,450.00 120.00,450.00 130.00,55.00 140.00,55.00 150.00,55.00 160.00,55.00 170.00,55.00 180.00,320.41 190.00,320.41 200.00,320.41 210.00,320.41 220.00,320.41 230.00,323.35 240.00,323.35 250.00,323.35 260.00,323.35 270.00,323.35 280.00,329.18 290.00,329.18 300.00,329.18 310.00,329.18 320.00,329.18 330.00,330.24 340.00,330.24 350.00,330.25 360.00,330.25 370.00,330.25 380.00,336.34 390.00,336.34 400.00,336.34 410.00,336.34 420.00,336.34 430.00,341.77 440.00,341.77 450.00,341.77 460.00,341.77 470.00,341.77 480.00,334.74 490.00,334.74 500.00,334.74 510.00,334.74 520.00,334.74 530.00,341.73 540.00,341.73 550.00,341.73 560.00,341.73 570.00,341.73 580.00,339.55 590.00,339.55 600.00,339.55 610.00,339.55 620.00,339.55 630.00,339.55 640.00,339.55 650.00,339.55 660.00,339.55 670.00,339.55 680.00,341.37 690.00,341.37 700.00,341.37 710.00,341.37 720.00,341.37 730.00,339.72 740.00,339.72 750.00,339.72 760.00,339.72 770.00,339.72 780.00,345.24 790.00,345.24 800.00,345.24 810.00,345.24 820.00,345.24 830.00,346.58 840.00,346.58 850.00,346.58 860.00,346.58 870.00,346.58 880.00,347.38 890.00,347.38 900.00,347.38 910.00,347.38 920.00,347.38 930.00,349.74 940.00,349.74 950.00,349.74 960.00,349.74 970.00,349.74 980.00,348.71 990.00,348.71 1000.00,348.71 1010.00,348.71 1020.00,348.71 1030.00,347.73 1040.00,347.73 1050.00,347.73 1060.00,347.73 1070.00,347.73 1080.00,349.74"/>
<rect x="860" y="47" width="210" height="56" fill="white" stroke="#ddd"/>
<line x1="872" y1="60" x2="892" y2="60" stroke="#d62728" stroke-width="3"/>
<text x="900" y="64" font-family="Arial" font-size="12" fill="#111">predictive</text>
<line x1="872" y1="78" x2="892" y2="78" stroke="#1f77b4" stroke-width="3"/>
<text x="900" y="82" font-family="Arial" font-size="12" fill="#111">greedy</text>
</svg>
