<svg xmlns="http://www.w3.org/2000/svg" width="1100" height="520" viewBox="0 0 1100 520">
<rect x="0" y="0" width="100%" height="100%" fill="white"/>
<text x="550.0" y="28" text-anchor="middle" font-family="Arial" font-size="18" fill="#111">experiment_results_20251229_222815 - Cold-start turnaround time (sum)</text>
<line x1="90" y1="450.00" x2="1080" y2="450.00" stroke="#e6e6e6" stroke-width="1"/>
<text x="80" y="454.00" text-anchor="end" font-family="Arial" font-size="12" fill="#333">0</text>
<line x1="90" y1="371.00" x2="1080" y2="371.00" stroke="#e6e6e6" stroke-width="1"/>
<text x="80" y="375.00" text-anchor="end" font-family="Arial" font-size="12" fill="#333">296,370</text>
<line x1="90" y1="292.00" x2="1080" y2="292.00" stroke="#e6e6e6" stroke-width="1"/>
<text x="80" y="296.00" text-anchor="end" font-family="Arial" font-size="12" fill="#333">592,740</text>
<line x1="90" y1="213.00" x2="1080" y2="213.00" stroke="#e6e6e6" stroke-width="1"/>
<text x="80" y="217.00" text-anchor="end" font-family="Arial" font-size="12" fill="#333">889,110</text>
<line x1="90" y1="134.00" x2="1080" y2="134.00" stroke="#e6e6e6" stroke-width="1"/>
<text x="80" y="138.00" text-anchor="end" font-family="Arial" font-size="12" fill="#333">1,185,480</text>
<line x1="90" y1="55.00" x2="1080" y2="55.00" stroke="#e6e6e6" stroke-width="1"/>
<text x="80" y="59.00" text-anchor="end" font-family="Arial" font-size="12" fill="#333">1,481,850</text>
<line x1="90.00" y1="55" x2="90.00" y2="450" stroke="#f0f0f0" stroke-width="1"/>
<text x="90.00" y="470" text-anchor="middle" font-family="Arial" font-size="12" fill="#333">1</text>
<line x1="290.00" y1="55" x2="290.00" y2="450" stroke="#f0f0f0" stroke-width="1"/>
<text x="290.00" y="470" text-anchor="middle" font-family="Arial" font-size="12" fill="#333">21</text>
<line x1="490.00" y1="55" x2="490.00" y2="450" stroke="#f0f0f0" stroke-width="1"/>
<text x="490.00" y="470" text-anchor="middle" font-family="Arial" font-size="12" fill="#333">41</text>
<line x1="680.00" y1="55" x2="680.00" y2="450" stroke="#f0f0f0" stroke-width="1"/>
<text x="680.00" y="470" text-anchor="middle" font-family="Arial" font-size="12" fill="#333">60</text>
<line x1="880.00" y1="55" x2="880.00" y2="450" stroke="#f0f0f0" stroke-width="1"/>
<text x="880.00" y="470" text-anchor="middle" font-family="Arial" font-size="12" fill="#333">80</text>
<line x1="1080.00" y1="55" x2="1080.00" y2="450" stroke="#f0f0f0" stroke-width="1"/>
<text x="1080.00" y="470" text-anchor="middle" font-family="Arial" font-size="12" fill="#333">100</text>
<line x1="90" y1="55" x2="90" y2="450" stroke="#111" stroke-width="1.5"/>
<line x1="90" y1="450" x2="1080" y2="450" stroke="#111" stroke-width="1.5"/>
<text x="550.0" y="495" text-anchor="middle" font-family="Arial" font-size="14" fill="#111">Timestep</text>
<text x="22" y="260.0" transform="rotate(-90, 22, 260.0)" text-anchor="middle" font-family="Arial" font-size="14" fill="#111">Cold-start turnaround time (ms)</text>
<polyline fill="none" stroke="#d62728" stroke-width="2" points="90.00,450.00 100.00,450.00 110.00,450.00 120.00,450.00 130.00,55.00 140.00,55.00 150.00,55.00 160.00,55.00 170.00,55.00 180.00,397.45 190.00,397.45 200.00,397.45 210.00,397.45 220.00,397.45 230.00,401.28 240.00,401.28 250.00,401.28 260.00,401.28 270.00,401.28 280.00,321.61 290.00,321.61 300.00,321.61 310.00,321.61 320.00,321.61 330.00,416.00 340.00,416.00 350.00,416.00 360.00,416.00 370.00,416.00 380.00,422.80 390.00,422.80 400.00,422.80 410.00,422.80 420.00,422.80 430.00,430.00 440.00,430.00 450.00,430.00 460.00,430.00 470.00,430.00 480.00,421.60 490.00,421.60 500.00,421.60 510.00,421.60 520.00,421.60 530.00,429.60 540.00,429.60 550.00,429.60 560.00,429.60 570.00,429.60 580.00,428.00 590.00,428.00 600.00,428.00 610.00,428.00 620.00,428.00 630.00,426.00 640.00,426.00 650.00,426.00 660.00,426.00 670.00,426.00 680.00,428.00 690.00,428.00 700.00,428.00 710.00,428.00 720.00,428.00 730.00,428.80 740.00,428.80 750.00,428.80 760.00,428.80 770.00,428.80 780.00,433.20 790.00,433.20 800.00,433.20 810.00,433.20 820.00,433.20 830.00,435.20 840.00,435.20 850.00,435.20 860.00,435.20 870.00,435.20 880.00,435.20 890.00,435.20 900.00,435.20 910.00,435.20 920.00,435.20 930.00,438.40 940.00,438.40 950.00,438.40 960.00,438.40 970.00,438.40 980.00,436.00 990.00,436.00 1000.00,436.00 1010.00,436.00 1020.00,436.00 1030.00,436.40 1040.00,436.40 1050.00,436.40 1060.00,436.40 1070.00,436.40 1080.00,438.40"/>
<polyline fill="none" stroke="#1f77b4" stroke-width="2" points="90.00,450.00 100.00,450.00 110.00,450.00 120.00,450.00 130.00,55.00 140.00,55.00 150.00,55.00 160.00,55.00 170.00,55.00 180.00,397.45 190.00,397.45 200.00,397.45 210.00,397.45 220.00,397.45 230.00,401.28 240.00,401.28 250.00,401.28 260.00,401.28 270.00,401.28 280.00,408.80 290.00,408.80 300.00,408.80 310.00,408.80 320.00,408.80 330.00,410.12 340.00,410.12 350.00,410.12 360.00,410.12 370.00,410.12 380.00,418.12 390.00,418.12 400.00,418.12 410.00,418.12 420.00,418.12 430.00,425.16 440.00,425.16 450.00,425.16 460.00,425.16 470.00,425.16 480.00,415.96 490.00,415.96 500.00,415.96 510.00,415.96 520.00,415.96 530.00,425.00 540.00,425.00 550.00,425.00 560.00,425.00 570.00,425.00 580.00,422.20 590.00,422.20 600.00,422.20 610.00,422.20 620.00,422.20 630.00,422.20 640.00,422.20 650.00,422.20 660.00,422.20 670.00,422.20 680.00,424.56 690.00,424.56 700.00,424.56 710.00,424.56 720.00,424.56 730.00,422.48 740.00,422.48 750.00,422.48 760.00,422.48 770.00,422.48 780.00,429.60 790.00,429.60 800.00,429.60 810.00,429.60 820.00,429.60 830.00,431.28 840.00,431.28 850.00,431.28 860.00,431.28 870.00,431.28 880.00,432.36 890.00,432.36 900.00,432.36 910.00,432.36 920.00,432.36 930.00,435.44 940.00,435.44 950.00,435.44 960.00,435.44 970.00,435.44 980.00,434.16 990.00,434.16 1000.00,434.16 1010.00,434.16 1020.00,434.16 1030.00,432.80 1040.00,432.80 1050.00,432.80 1060.00,432.80 1070.00,432.80 1080.00,435.44"/>
<rect x="860" y="47" width="210" height="56" fill="white" stroke="#ddd"/>
<line x1="872" y1="60" x2="892" y2="60" stroke="#d62728" stroke-width="3"/>
<text x="900" y="64" font-family="Arial" font-size="12" fill="#111">predictive</text>
<line x1="872" y1="78" x2="892" y2="78" stroke="#1f77b4" stroke-width="3"/>
<text x="900" y="82" font-family="Arial" font-size="12" fill="#111">greedy</text>
</svg>
