<svg xmlns="http://www.w3.org/2000/svg" width="1100" height="520" viewBox="0 0 1100 520">
<rect x="0" y="0" width="100%" height="100%" fill="white"/>
<text x="550.0" y="28" text-anchor="middle" font-family="Arial" font-size="18" fill="#111">experiment_results_20251229_222815 - Cold starts (count)</text>
<line x1="90" y1="450.00" x2="1080" y2="450.00" stroke="#e6e6e6" stroke-width="1"/>
<text x="80" y="454.00" text-anchor="end" font-family="Arial" font-size="12" fill="#333">0</text>
<line x1="90" y1="371.00" x2="1080" y2="371.00" stroke="#e6e6e6" stroke-width="1"/>
<text x="80" y="375.00" text-anchor="end" font-family="Arial" font-size="12" fill="#333">200</text>
<line x1="90" y1="292.00" x2="1080" y2="292.00" stroke="#e6e6e6" stroke-width="1"/>
<text x="80" y="296.00" text-anchor="end" font-family="Arial" font-size="12" fill="#333">400</text>
<line x1="90" y1="213.00" x2="1080" y2="213.00" stroke="#e6e6e6" stroke-width="1"/>
<text x="80" y="217.00" text-anchor="end" font-family="Arial" font-size="12" fill="#333">600</text>
<line x1="90" y1="134.00" x2="1080" y2="134.00" stroke="#e6e6e6" stroke-width="1"/>
<text x="80" y="138.00" text-anchor="end" font-family="Arial" font-size="12" fill="#333">800</text>
<line x1="90" y1="55.00" x2="1080" y2="55.00" stroke="#e6e6e6" stroke-width="1"/>
<text x="80" y="59.00" text-anchor="end" font-family="Arial" font-size="12" fill="#333">1,000</text>
<line x1="90.00" y1="55" x2="90.00" y2="450" stroke="#f0f0f0" stroke-width="1"/>
<text x="90.00" y="470" text-anchor="middle" font-family="Arial" font-size="12" fill="#333">1</text>
<line x1="290.00" y1="55" x2="290.00" y2="450" stroke="#f0f0f0" stroke-width="1"/>
<text x="290.00" y="470" text-anchor="middle" font-family="Arial" font-size="12" fill="#333">21</text>
<line x1="490.00" y1="55" x2="490.00" y2="450" stroke="#f0f0f0" stroke-width="1"/>
<text x="490.00" y="470" text-anchor="middle" font-family="Arial" font-size="12" fill="#333">41</text>
<line x1="680.00" y1="55" x2="680.00" y2="450" stroke="#f0f0f0" stroke-width="1"/>
<text x="680.00" y="470" text-anchor="middle" font-family="Arial" font-size="12" fill="#333">60</text>
<line x1="880.00" y1="55" x2="880.00" y2="450" stroke="#f0f0f0" stroke-width="1"/>
<text x="880.00" y="470" text-anchor="middle" font-family="Arial" font-size="12" fill="#333">80</text>
<line x1="1080.00" y1="55" x2="1080.00" y2="450" stroke="#f0f0f0" stroke-width="1"/>
<text x="1080.00" y="470" text-anchor="middle" font-family="Arial" font-size="12" fill="#333">100</text>
<line x1="90" y1="55" x2="90" y2="450" stroke="#111" stroke-width="1.5"/>
<line x1="90" y1="450" x2="1080" y2="450" stroke="#111" stroke-width="1.5"/>
<text x="550.0" y="495" text-anchor="middle" font-family="Arial" font-size="14" fill="#111">Timestep</text>
<text x="22" y="260.0" transform="rotate(-90, 22, 260.0)" text-anchor="middle" font-family="Arial" font-size="14" fill="#111">Cold starts (count)</text>
<polyline fill="none" stroke="#d62728" stroke-width="2" points="90.00,450.00 100.00,450.00 110.00,450.00 120.00,450.00 130.00,55.00 140.00,55.00 150.00,55.00 160.00,55.00 170.00,55.00 180.00,397.07 190.00,397.07 200.00,397.07 210.00,397.07 220.00,397.07 230.00,401.02 240.00,401.02 250.00,401.02 260.00,401.02 270.00,401.02 280.00,323.20 290.00,323.20 300.00,323.20 310.00,323.20 320.00,323.20 330.00,416.43 340.00,416.43 350.00,416.43 360.00,416.43 370.00,416.43 380.00,423.14 390.00,423.14 400.00,423.14 410.00,423.14 420.00,423.14 430.00,430.25 440.00,430.25 450.00,430.25 460.00,430.25 470.00,430.25 480.00,421.95 490.00,421.95 500.00,421.95 510.00,421.95 520.00,421.95 530.00,429.86 540.00,429.86 550.00,429.86 560.00,429.86 570.00,429.86 580.00,428.27 590.00,428.27 600.00,428.27 610.00,428.27 620.00,428.27 630.00,426.30 640.00,426.30 650.00,426.30 660.00,426.30 670.00,426.30 680.00,428.27 690.00,428.27 700.00,428.27 710.00,428.27 720.00,428.27 730.00,429.06 740.00,429.06 750.00,429.06 760.00,429.06 770.00,429.06 780.00,433.41 790.00,433.41 800.00,433.41 810.00,433.41 820.00,433.41 830.00,435.38 840.00,435.38 850.00,435.38 860.00,435.38 870.00,435.38 880.00,435.38 890.00,435.38 900.00,435.38 910.00,435.38 920.00,435.38 930.00,438.55 940.00,438.55 950.00,438.55 960.00,438.55 970.00,438.55 980.00,436.18 990.00,436.18 1000.00,436.18 1010.00,436.18 1020.00,436.18 1030.00,436.57 1040.00,436.57 1050.00,436.57 1060.00,436.57 1070.00,436.57 1080.00,438.55"/>
<polyline fill="none" stroke="#1f77b4" stroke-width="2" points="90.00,450.00 100.00,450.00 110.00,450.00 120.00,450.00 130.00,55.00 140.00,55.00 150.00,55.00 160.00,55.00 170.00,55.00 180.00,397.07 190.00,397.07 200.00,397.07 210.00,397.07 220.00,397.07 230.00,401.02 240.00,401.02 250.00,401.02 260.00,401.02 270.00,401.02 280.00,408.52 290.00,408.52 300.00,408.52 310.00,408.52 320.00,408.52 330.00,409.71 340.00,409.71 350.00,409.71 360.00,409.71 370.00,409.71 380.00,418.00 390.00,418.00 400.00,418.00 410.00,418.00 420.00,418.00 430.00,425.12 440.00,425.12 450.00,425.12 460.00,425.12 470.00,425.12 480.00,415.63 490.00,415.63 500.00,415.63 510.00,415.63 520.00,415.63 530.00,424.72 540.00,424.72 550.00,424.72 560.00,424.72 570.00,424.72 580.00,421.95 590.00,421.95 600.00,421.95 610.00,421.95 620.00,421.95 630.00,421.95 640.00,421.95 650.00,421.95 660.00,421.95 670.00,421.95 680.00,424.32 690.00,424.32 700.00,424.32 710.00,424.32 720.00,424.32 730.00,422.35 740.00,422.35 750.00,422.35 760.00,422.35 770.00,422.35 780.00,429.46 790.00,429.46 800.00,429.46 810.00,429.46 820.00,429.46 830.00,431.04 840.00,431.04 850.00,431.04 860.00,431.04 870.00,431.04 880.00,432.23 890.00,432.23 900.00,432.23 910.00,432.23 920.00,432.23 930.00,435.38 940.00,435.38 950.00,435.38 960.00,435.38 970.00,435.38 980.00,434.20 990.00,434.20 1000.00,434.20 1010.00,434.20 1020.00,434.20 1030.00,432.62 1040.00,432.62 1050.00,432.62 1060.00,432.62 1070.00,432.62 1080.00,435.38"/>
<rect x="860" y="47" width="210" height="56" fill="white" stroke="#ddd"/>
<line x1="872" y1="60" x2="892" y2="60" stroke="#d62728" stroke-width="3"/>
<text x="900" y="64" font-family="Arial" font-size="12" fill="#111">predictive</text>
<line x1="872" y1="78" x2="892" y2="78" stroke="#1f77b4" stroke-width="3"/>
<text x="900" y="82" font-family="Arial" font-size="12" fill="#111">greedy</text>
</svg>
