<svg xmlns="http://www.w3.org/2000/svg" width="1100" height="520" viewBox="0 0 1100 520">
<rect x="0" y="0" width="100%" height="100%" fill="white"/>
<text x="550.0" y="28" text-anchor="middle" font-family="Arial" font-size="18" fill="#111">experiment_results_20251224_140805 — Total turnaround time (sum over users)</text>
<line x1="90" y1="450.00" x2="1080" y2="450.00" stroke="#e6e6e6" stroke-width="1"/>
<text x="80" y="454.00" text-anchor="end" font-family="Arial" font-size="12" fill="#333">15,052</text>
<line x1="90" y1="371.00" x2="1080" y2="371.00" stroke="#e6e6e6" stroke-width="1"/>
<text x="80" y="375.00" text-anchor="end" font-family="Arial" font-size="12" fill="#333">39,292</text>
<line x1="90" y1="292.00" x2="1080" y2="292.00" stroke="#e6e6e6" stroke-width="1"/>
<text x="80" y="296.00" text-anchor="end" font-family="Arial" font-size="12" fill="#333">63,532</text>
<line x1="90" y1="213.00" x2="1080" y2="213.00" stroke="#e6e6e6" stroke-width="1"/>
<text x="80" y="217.00" text-anchor="end" font-family="Arial" font-size="12" fill="#333">87,772</text>
<line x1="90" y1="134.00" x2="1080" y2="134.00" stroke="#e6e6e6" stroke-width="1"/>
<text x="80" y="138.00" text-anchor="end" font-family="Arial" font-size="12" fill="#333">112,012</text>
<line x1="90" y1="55.00" x2="1080" y2="55.00" stroke="#e6e6e6" stroke-width="1"/>
<text x="80" y="59.00" text-anchor="end" font-family="Arial" font-size="12" fill="#333">136,252</text>
<line x1="90.00" y1="55" x2="90.00" y2="450" stroke="#f0f0f0" stroke-width="1"/>
<text x="90.00" y="470" text-anchor="middle" font-family="Arial" font-size="12" fill="#333">1</text>
<line x1="290.00" y1="55" x2="290.00" y2="450" stroke="#f0f0f0" stroke-width="1"/>
<text x="290.00" y="470" text-anchor="middle" font-family="Arial" font-size="12" fill="#333">21</text>
<line x1="490.00" y1="55" x2="490.00" y2="450" stroke="#f0f0f0" stroke-width="1"/>
<text x="490.00" y="470" text-anchor="middle" font-family="Arial" font-size="12" fill="#333">41</text>
<line x1="680.00" y1="55" x2="680.00" y2="450" stroke="#f0f0f0" stroke-width="1"/>
<text x="680.00" y="470" text-anchor="middle" font-family="Arial" font-size="12" fill="#333">60</text>
<line x1="880.00" y1="55" x2="880.00" y2="450" stroke="#f0f0f0" stroke-width="1"/>
<text x="880.00" y="470" text-anchor="middle" font-family="Arial" font-size="12" fill="#333">80</text>
<line x1="1080.00" y1="55" x2="1080.00" y2="450" stroke="#f0f0f0" stroke-width="1"/>
<text x="1080.00" y="470" text-anchor="middle" font-family="Arial" font-size="12" fill="#333">100</text>
<line x1="90" y1="55" x2="90" y2="450" stroke="#111" stroke-width="1.5"/>
<line x1="90" y1="450" x2="1080" y2="450" stroke="#111" stroke-width="1.5"/>
<text x="550.0" y="495" text-anchor="middle" font-family="Arial" font-size="14" fill="#111">Timestep</text>
<text x="22" y="260.0" transform="rotate(-90, 22, 260.0)" text-anchor="middle" font-family="Arial" font-size="14" fill="#111">Total turnaround time (ms)</text>
<polyline fill="none" stroke="#d62728" stroke-width="2" points="90.00,450.00 100.00,450.00 110.00,450.00 120.00,450.00 130.00,55.00 140.00,55.00 150.00,55.00 160.00,55.00 170.00,55.00 180.00,348.81 190.00,348.81 200.00,348.81 210.00,348.81 220.00,348.81 230.00,352.23 240.00,352.23 250.00,352.23 260.00,352.23 270.00,352.23 280.00,352.23 290.00,352.23 300.00,352.23 310.00,352.23 320.00,352.23 330.00,348.81 340.00,348.81 350.00,348.81 360.00,348.81 370.00,348.81 380.00,349.29 390.00,349.29 400.00,349.29 410.00,349.29 420.00,349.29 430.00,352.23 440.00,352.23 450.00,352.23 460.00,352.23 470.00,352.23 480.00,352.23 490.00,352.23 500.00,352.23 510.00,352.23 520.00,352.23 530.00,352.23 540.00,352.23 550.00,352.23 560.00,352.23 570.00,352.23 580.00,352.23 590.00,352.23 600.00,352.23 610.00,352.23 620.00,352.23 630.00,352.23 640.00,352.23 650.00,352.23 660.00,352.23 670.00,352.23 680.00,352.23 690.00,352.23 700.00,352.23 710.00,352.23 720.00,352.23 730.00,352.23 740.00,352.23 750.00,352.23 760.00,352.23 770.00,352.23 780.00,352.23 790.00,352.23 800.00,352.23 810.00,352.23 820.00,352.23 830.00,352.23 840.00,352.23 850.00,352.23 860.00,352.23 870.00,352.23 880.00,352.23 890.00,352.23 900.00,352.23 910.00,352.23 920.00,352.23 930.00,352.23 940.00,352.23 950.00,352.23 960.00,352.23 970.00,352.23 980.00,352.23 990.00,352.23 1000.00,352.23 1010.00,352.23 1020.00,352.23 1030.00,352.23 1040.00,352.23 1050.00,352.23 1060.00,352.23 1070.00,352.23 1080.00,352.23"/>
<polyline fill="none" stroke="#1f77b4" stroke-width="2" points="90.00,450.00 100.00,450.00 110.00,450.00 120.00,450.00 130.00,55.00 140.00,55.00 150.00,55.00 160.00,55.00 170.00,55.00 180.00,348.81 190.00,348.81 200.00,348.81 210.00,348.81 220.00,348.81 230.00,352.23 240.00,352.23 250.00,352.23 260.00,352.23 270.00,352.23 280.00,352.23 290.00,352.23 300.00,352.23 310.00,352.23 320.00,352.23 330.00,348.81 340.00,348.81 350.00,348.81 360.00,348.81 370.00,348.81 380.00,349.29 390.00,349.29 400.00,349.29 410.00,349.29 420.00,349.29 430.00,352.23 440.00,352.23 450.00,352.23 460.00,352.23 470.00,352.23 480.00,352.23 490.00,352.23 500.00,352.23 510.00,352.23 520.00,352.23 530.00,352.23 540.00,352.23 550.00,352.23 560.00,352.23 570.00,352.23 580.00,352.23 590.00,352.23 600.00,352.23 610.00,352.23 620.00,352.23 630.00,352.23 640.00,352.23 650.00,352.23 660.00,352.23 670.00,352.23 680.00,352.23 690.00,352.23 700.00,352.23 710.00,352.23 720.00,352.23 730.00,352.23 740.00,352.23 750.00,352.23 760.00,352.23 770.00,352.23 780.00,352.23 790.00,352.23 800.00,352.23 810.00,352.23 820.00,352.23 830.00,352.23 840.00,352.23 850.00,352.23 860.00,352.23 870.00,352.23 880.00,352.23 890.00,352.23 900.00,352.23 910.00,352.23 920.00,352.23 930.00,352.23 940.00,352.23 950.00,352.23 960.00,352.23 970.00,352.23 980.00,352.23 990.00,352.23 1000.00,352.23 1010.00,352.23 1020.00,352.23 1030.00,352.23 1040.00,352.23 1050.00,352.23 1060.00,352.23 1070.00,352.23 1080.00,352.23"/>
<rect x="860" y="47" width="210" height="56" fill="white" stroke="#ddd"/>
<line x1="872" y1="60" x2="892" y2="60" stroke="#d62728" stroke-width="3"/>
<text x="900" y="64" font-family="Arial" font-size="12" fill="#111">predictive</text>
<line x1="872" y1="78" x2="892" y2="78" stroke="#1f77b4" stroke-width="3"/>
<text x="900" y="82" font-family="Arial" font-size="12" fill="#111">greedy</text>
</svg>
